<?xml version="1.0" encoding="UTF-8" standalone="no"?>
<!-- Created with Inkscape (http://www.inkscape.org/) -->

<svg
   width="268.43988mm"
   height="210.61818mm"
   viewBox="0 0 268.43988 210.61818"
   version="1.1"
   id="svg185"
   xml:space="preserve"
   inkscape:version="1.2.2 (732a01da63, 2022-12-09)"
   sodipodi:docname="houseiconshadow.svg"
   xmlns:inkscape="http://www.inkscape.org/namespaces/inkscape"
   xmlns:sodipodi="http://sodipodi.sourceforge.net/DTD/sodipodi-0.dtd"
   xmlns:xlink="http://www.w3.org/1999/xlink"
   xmlns="http://www.w3.org/2000/svg"
   xmlns:svg="http://www.w3.org/2000/svg"><sodipodi:namedview
     id="namedview187"
     pagecolor="#ffffff"
     bordercolor="#000000"
     borderopacity="0.25"
     inkscape:showpageshadow="2"
     inkscape:pageopacity="0.0"
     inkscape:pagecheckerboard="0"
     inkscape:deskcolor="#d1d1d1"
     inkscape:document-units="mm"
     showgrid="false"
     inkscape:zoom="0.3581229"
     inkscape:cx="90.75097"
     inkscape:cy="188.48278"
     inkscape:window-width="1920"
     inkscape:window-height="991"
     inkscape:window-x="-9"
     inkscape:window-y="-9"
     inkscape:window-maximized="1"
     inkscape:current-layer="layer1" /><defs
     id="defs182"><linearGradient
       inkscape:collect="always"
       id="linearGradient5064"><stop
         style="stop-color:#303030;stop-opacity:1;"
         offset="0"
         id="stop5060" /><stop
         style="stop-color:#5b5b5b;stop-opacity:0;"
         offset="1"
         id="stop5062" /></linearGradient><linearGradient
       inkscape:collect="always"
       xlink:href="#linearGradient5064"
       id="linearGradient5070"
       x1="86.080017"
       y1="274.59042"
       x2="267.34079"
       y2="62.553108"
       gradientUnits="userSpaceOnUse" /></defs><g
     inkscape:label="Layer 1"
     inkscape:groupmode="layer"
     id="layer1"
     transform="translate(-102.33374,-107.96044)"><g
       id="g1887"
       inkscape:label="ablakok"
       transform="translate(50.977612,42.850746)"><g
         id="g4963"
         style="display:none"><rect
           style="fill:#a57b65;fill-opacity:1;stroke-width:1.4862;stroke-linecap:square;stroke-opacity:0.764706;paint-order:markers stroke fill"
           id="rect1889"
           width="109.71268"
           height="207.92906"
           x="50.977612"
           y="67.970146" /><path
           style="fill:#5b1c11;fill-opacity:1;stroke:none;stroke-width:0.264583"
           d="m 69.930503,13.065872 v 3.175 l 1.5875,-0.264583 v 6.35 h -6.350001 c -2.382308,11.511915 -6.856148,22.865556 -12.105481,33.3375 -1.361546,2.716213 -3.879585,9.417315 -6.944519,10.31875 v 3.175 H 165.1805 v -3.175 c -2.8866,-0.888206 -4.93077,-7.024952 -6.35,-9.525 -4.05844,-7.149571 -6.86064,-14.95081 -9.35143,-22.754167 -1.14803,-3.596587 -2.75537,-7.607908 -3.08398,-11.377083 h -6.87917 v -6.35 l 1.32292,0.264583 0.26458,-3.175 h -10.05417 v 3.175 l 1.5875,-0.264583 v 6.35 H 78.132586 l 0.264583,-6.35 1.322917,0.264583 v -3.175 h -9.789583 m 11.1125,24.077084 v 5.027083 h -5.027084 c 0.39714,-2.650278 2.30214,-4.747948 5.027084,-5.027083 m 6.614583,5.027083 h -5.027083 v -5.027083 c 2.724943,0.279135 4.629943,2.376805 5.027083,5.027083 m 40.745834,-5.027083 v 5.027083 h -5.29167 c 0.65088,-2.739999 2.37728,-4.770702 5.29167,-5.027083 m 6.61458,5.027083 h -5.29166 v -5.027083 c 2.97894,0.262069 4.50664,2.320343 5.29166,5.027083 m -53.974997,1.322917 v 4.7625 h -5.027084 v -4.7625 h 5.027084 m 6.614583,0 v 4.7625 h -5.027083 v -4.7625 h 5.027083 m 40.745834,0 v 4.7625 h -5.29167 v -4.7625 h 5.29167 m 6.61458,0 v 4.7625 h -5.29166 v -4.7625 h 5.29166 m -30.42708,0.529166 v 6.614584 h -6.614584 c 0.321204,-3.655219 3.216804,-5.911057 6.614584,-6.614584 m 8.73125,6.614584 H 106.443 v -6.614584 c 3.57399,0.483659 6.33677,2.995878 6.87917,6.614584 m -8.73125,1.852083 v 6.35 h -6.879167 v -6.35 h 6.879167 m 8.73125,0 v 6.35 H 106.443 v -6.35 h 6.87917"
           id="path426" /><path
           style="fill:#5b1c11;fill-opacity:1;stroke:none;stroke-width:0.264583"
           d="m 69.930503,233.99296 v 32.80833 H 101.41592 V 233.99296 H 69.930503 m 30.427087,1.05833 v 30.69167 H 70.988836 v -30.69167 z"
           id="path505" /><path
           style="fill:#5b1c11;fill-opacity:1;stroke:none;stroke-width:0.266425"
           d="m 111.99925,275.79713 h 28.83959 v -24.95015 c 0,-4.78451 0.5715,-9.82578 -1.65603,-14.21888 -5.34749,-10.54613 -21.03411,-10.24753 -25.99558,0.53655 -1.84679,4.01456 -1.18798,8.83718 -1.18798,13.14578 v 25.4867"
           id="path503"
           inkscape:label="ajto" /><path
           style="fill:#35100b;fill-opacity:1;stroke-width:1.489;stroke-linecap:square;stroke-opacity:0.764706;paint-order:markers stroke fill"
           d="m 96.385514,50.674227 c 0.135189,-3.736363 3.26509,-10.905408 3.26509,-10.905408 0,0 0.783626,-8.162729 5.746566,-8.228031 4.96294,-0.0653 5.68126,8.097428 5.68126,8.097428 0,0 3.81263,7.867115 3.7875,11.036011 -0.0125,1.572632 -18.703157,6.15611 -18.480416,0 z"
           id="path4385"
           sodipodi:nodetypes="scscss" /><path
           style="fill:#5b1c11;fill-opacity:1;stroke:none;stroke-width:0.264583"
           d="m 60.140919,218.11796 c 0.476779,2.00316 -0.294746,4.46405 0.491596,6.34603 0.948531,2.27039 3.887523,2.18361 5.064654,0.26855 h 0.529167 c 1.053571,2.01375 3.632464,1.83859 4.7625,0 h 0.529167 c 1.05357,2.01375 3.632464,1.83859 4.7625,0 h 0.529166 c 1.053571,2.01375 3.632465,1.83859 4.7625,0 h 0.529167 c 1.053571,2.01375 3.632465,1.83859 4.7625,0 h 0.529167 c 1.053571,2.01375 3.632464,1.83859 4.7625,0 h 0.529166 c 1.053571,2.01375 3.632465,1.83859 4.762501,0 h 0.529166 c 1.053571,2.01375 3.632464,1.83859 4.762504,0 h 0.52916 c 1.05357,2.01375 3.63247,1.83859 4.7625,0 1.65868,1.47849 3.90843,2.25055 5.29167,0 1.78065,1.58724 3.7039,2.10344 5.29167,0 h 0.26458 c 1.47373,1.86505 3.59357,1.89918 5.02708,0 h 0.26459 c 1.45944,1.8423 3.61368,1.87246 5.02708,0 h 0.26458 c 1.45257,1.83806 3.60204,1.87616 5.02709,0 h 0.26458 c 1.45256,1.83806 3.60204,1.87616 5.02708,0 h 0.26459 c 1.45944,1.8423 3.61368,1.87246 5.02708,0 h 0.26458 c 1.47717,1.86902 4.34896,1.99496 5.31998,-0.52943 0.69665,-1.81134 0.23627,-4.43045 0.23627,-6.34974 l -9.525,-7.51443 -7.14375,-0.15848 H 118.61384 85.011753 74.957586 l -5.027083,0.14922 -9.789584,7.78828"
           id="path501" /><path
           style="fill:#35100b;fill-opacity:1;stroke-width:1.16406;stroke-linecap:square;stroke-opacity:0.764706;paint-order:markers stroke fill"
           d="m 121.88506,42.909511 c 0.10391,-2.970921 2.50969,-8.671294 2.50969,-8.671294 0,0 0.60231,-6.490489 4.41702,-6.542412 3.8147,-0.05192 4.36683,6.438564 4.36683,6.438564 0,0 2.93052,6.255436 2.91121,8.775142 -0.01,1.250458 -14.37594,4.894952 -14.20475,0 z"
           id="path4388"
           sodipodi:nodetypes="scscss" /><path
           style="fill:#35100b;fill-opacity:1;stroke-width:1.16406;stroke-linecap:square;stroke-opacity:0.764706;paint-order:markers stroke fill"
           d="m 74.704481,42.909511 c 0.10391,-2.970921 2.50969,-8.671294 2.50969,-8.671294 0,0 0.60231,-6.490489 4.41702,-6.542412 3.8147,-0.05192 4.36683,6.438564 4.36683,6.438564 0,0 2.93052,6.255436 2.91121,8.775142 -0.01,1.250458 -14.37594,4.894952 -14.20475,0 z"
           id="path3949"
           sodipodi:nodetypes="scscss" /><path
           style="display:inline;fill:#441e18;fill-opacity:1;stroke-width:1.489;stroke-linecap:square;stroke-opacity:0.764706;paint-order:markers stroke fill"
           d="m 121.90299,42.804572 v 6.926304 h 14.17816 V 43.3125 c 0.009,-4.491654 -2.66687,-7.486782 -7.14796,-7.659339 -4.04808,0.200586 -6.95335,3.135839 -7.0302,7.151411 z"
           id="path3892"
           sodipodi:nodetypes="cccccc"
           inkscape:label="path3888" /><path
           style="display:inline;fill:#441e18;fill-opacity:1;stroke-width:1.93541;stroke-linecap:square;stroke-opacity:0.764706;paint-order:markers stroke fill"
           d="m 96.402979,51.542536 v 8.97097 h 18.494211 v -8.3131 c 0.0117,-5.817604 -3.4787,-9.696903 -9.3239,-9.920399 -5.28038,0.2598 -9.070067,4.061548 -9.170311,9.262529 z"
           id="path3888"
           sodipodi:nodetypes="cccccc"
           inkscape:label="path3888" /><path
           style="display:inline;fill:#441e18;fill-opacity:1;stroke-width:1.489;stroke-linecap:square;stroke-opacity:0.764706;paint-order:markers stroke fill"
           d="m 74.757927,42.804572 v 6.926304 H 88.93609 V 43.3125 c 0.0092,-4.491654 -2.666873,-7.486782 -7.147961,-7.659339 -4.048073,0.200586 -6.953344,3.135839 -7.030202,7.151411 z"
           id="path3808"
           sodipodi:nodetypes="cccccc" /><g
           id="g2998"
           inkscape:label="keretek"><path
             style="fill:#5b1c11;fill-opacity:1;stroke:none;stroke-width:0.264583"
             d="m 118.34925,205.41796 h 19.57917 v -16.66875 c 0,-3.07367 0.36539,-6.41694 -1.05622,-9.26042 -3.48588,-6.97177 -14.11949,-7.15407 -17.56145,0 -1.37398,2.85618 -0.9615,6.18622 -0.9615,9.26042 v 16.66875 m 8.73125,-29.36875 v 6.87916 h -6.61458 c 0.17912,-3.91054 3.16812,-5.90073 6.61458,-6.87916 m 8.73125,6.87916 h -6.87916 v -6.87916 c 3.54594,0.73395 6.54341,3.05858 6.87916,6.87916 m -8.73125,1.5875 v 6.08542 h -6.87916 v -6.08542 h 6.87916 m 8.73125,0 v 6.08542 h -6.87916 v -6.08542 h 6.87916 m -8.73125,7.9375 v 6.08542 h -6.87916 v -6.08542 h 6.87916 m 8.73125,0 v 6.08542 h -6.87916 v -6.08542 h 6.87916 m -8.73125,7.9375 v 2.91042 h -6.87916 v -2.91042 h 6.87916 m 8.73125,0 v 2.91042 h -6.87916 v -2.91042 h 6.87916"
             id="path499" /><path
             style="fill:#6593a5;fill-opacity:1;stroke-width:2.77795;stroke-linecap:square;stroke-opacity:0.764706;paint-order:markers stroke fill"
             d="m 282.71933,349.60651 c 0.12507,-0.33937 0.72788,-2.13325 1.33957,-3.98642 1.35393,-4.10176 5.16114,-9.92406 8.30626,-12.7026 4.00373,-3.53707 7.26559,-5.10051 15.03682,-7.20731 0.80595,-0.21849 0.86384,0.59491 0.86384,12.13958 v 12.37377 h -12.88694 c -10.10175,0 -12.83779,-0.13335 -12.65955,-0.61702 z"
             id="path3078"
             transform="scale(0.26458333)" /><path
             style="fill:#5b1c11;fill-opacity:1;stroke:none;stroke-width:0.264583"
             d="m 72.576336,205.41796 h 19.579167 v -16.93334 c 0,-2.84824 0.439208,-6.06663 -0.76835,-8.73125 -3.262842,-7.19851 -13.853848,-7.44193 -17.541875,-0.52916 -1.556544,2.91756 -1.268942,6.32962 -1.268942,9.525 v 16.66875 m 8.995833,-29.36875 v 6.87916 h -6.879166 c 0.551656,-3.73485 3.276864,-6.12563 6.879166,-6.87916 m 2.116667,0 c 3.50811,1.21893 5.822421,3.09165 6.614583,6.87916 h -6.879166 l 0.264583,-6.87916 m -2.116667,8.46666 v 6.08542 h -6.879166 v -6.08542 h 6.879166 m 8.73125,0 v 6.08542 h -6.879166 v -6.08542 h 6.879166 m -8.73125,7.9375 v 6.08542 h -6.879166 v -6.08542 h 6.879166 m 8.73125,0 v 6.08542 h -6.879166 v -6.08542 h 6.879166 m -8.73125,7.9375 v 2.91042 h -6.879166 v -2.91042 h 6.879166 m 8.73125,0 v 2.91042 h -6.879166 v -2.91042 h 6.879166"
             id="path497" /><path
             style="fill:#5b1c11;fill-opacity:1;stroke:none;stroke-width:0.264583"
             d="m 118.34925,160.43879 h 19.57917 v -16.93333 c 0,-3.07949 0.36486,-6.44843 -1.14406,-9.26042 -3.71898,-6.9305 -14.38645,-6.70295 -17.66676,0.52917 -1.20808,2.66382 -0.76835,5.88354 -0.76835,8.73125 v 16.93333 m 8.73125,-29.36875 v 6.61458 h -6.61458 c 0.31803,-3.61976 3.23824,-5.90841 6.61458,-6.61458 m 8.73125,6.61458 h -6.87916 v -6.61458 c 3.52716,0.72999 6.31851,2.87496 6.87916,6.61458 m -8.73125,1.85209 v 6.08541 h -6.87916 v -6.08541 h 6.87916 m 8.73125,0 v 6.08541 h -6.87916 v -6.08541 h 6.87916 m -8.73125,7.9375 v 6.08541 h -6.87916 v -6.08541 h 6.87916 m 8.73125,0 v 6.08541 h -6.87916 v -6.08541 h 6.87916 m -8.73125,7.9375 v 2.91041 h -6.87916 v -2.91041 h 6.87916 m 8.73125,0 v 2.91041 h -6.87916 v -2.91041 h 6.87916"
             id="path491" /><path
             style="fill:#5b1c11;fill-opacity:1;stroke:none;stroke-width:0.264583"
             d="m 72.576336,160.43879 h 19.579167 v -16.93333 c 0,-2.85777 0.455348,-6.06743 -0.767556,-8.73125 -3.275278,-7.13396 -13.885863,-7.55439 -17.54558,-0.52917 -1.570567,3.01546 -1.266031,6.49923 -1.266031,9.78958 v 16.40417 m 8.995833,-29.36875 v 6.61458 h -6.879166 c 0.84746,-3.66183 3.235325,-5.86052 6.879166,-6.61458 m 8.73125,6.61458 h -6.879166 v -6.61458 c 3.697287,0.77338 5.843587,3.04297 6.879166,6.61458 m -8.73125,1.85209 v 6.08541 h -6.879166 v -6.08541 h 6.879166 m 8.73125,0 v 6.08541 h -6.879166 v -6.08541 h 6.879166 m -8.73125,7.9375 v 6.08541 h -6.879166 v -6.08541 h 6.879166 m 8.73125,0 v 6.08541 h -6.879166 v -6.08541 h 6.879166 m -8.73125,7.9375 v 2.91041 h -6.879166 v -2.91041 h 6.879166 m 8.73125,0 v 2.91041 h -6.879166 v -2.91041 h 6.879166"
             id="path489" /><path
             style="fill:#5b1c11;fill-opacity:1;stroke:none;stroke-width:0.264583"
             d="m 118.34925,115.45962 h 19.57917 V 98.52629 c 0,-3.075252 0.3474,-6.44234 -1.14485,-9.260417 -3.73116,-7.046119 -14.36979,-6.742906 -17.66597,0.529167 -1.20756,2.664618 -0.76835,5.88301 -0.76835,8.73125 v 16.93333 m 8.73125,-29.368747 v 6.614583 h -6.61458 c 0.3212,-3.655218 3.2168,-5.911056 6.61458,-6.614583 m 8.73125,6.614583 h -6.87916 v -6.614583 c 3.57399,0.483658 6.33677,2.995612 6.87916,6.614583 m -8.73125,1.852084 v 6.08542 h -6.87916 v -6.08542 h 6.87916 m 8.73125,0 v 6.08542 h -6.87916 v -6.08542 h 6.87916 m -8.73125,7.9375 v 6.08542 h -6.87916 v -6.08542 h 6.87916 m 8.73125,0 v 6.08542 h -6.87916 v -6.08542 h 6.87916 m -8.73125,7.9375 v 2.91042 h -6.87916 v -2.91042 h 6.87916 m 8.73125,0 v 2.91042 h -6.87916 v -2.91042 h 6.87916"
             id="path3003" /><path
             style="fill:#5b1c11;fill-opacity:1;stroke:none;stroke-width:0.264583"
             d="M 72.576336,115.45962 H 92.155503 V 98.52629 c 0,-2.714361 0.479689,-5.919523 -0.618596,-8.466667 -3.264165,-7.571052 -14.197277,-7.943321 -17.904354,-0.529167 -1.398323,2.796646 -1.056217,6.233319 -1.056217,9.260417 v 16.668747 m 8.995833,-29.368747 v 6.614583 h -6.879166 c 0.830791,-3.589866 3.159654,-6.065308 6.879166,-6.614583 m 8.73125,6.614583 h -6.879166 v -6.614583 c 3.731154,0.551127 5.893064,3.140604 6.879166,6.614583 m -8.73125,1.852084 v 6.08542 h -6.879166 v -6.08542 h 6.879166 m 8.73125,0 v 6.08542 h -6.879166 v -6.08542 h 6.879166 m -8.73125,7.9375 v 6.08542 h -6.879166 v -6.08542 h 6.879166 m 8.73125,0 v 6.08542 h -6.879166 v -6.08542 h 6.879166 m -8.73125,7.9375 v 2.91042 h -6.879166 v -2.91042 h 6.879166 m 8.73125,0 v 2.91042 h -6.879166 v -2.91042 h 6.879166"
             id="path481" /><path
             style="fill:#6593a5;fill-opacity:1;stroke-width:2.77795;stroke-linecap:square;stroke-opacity:0.764706;paint-order:markers stroke fill"
             d="m 315.67012,337.9355 v -12.28804 l 1.94476,0.43696 c 10.96309,2.46324 19.32312,10.8466 22.96441,23.02847 l 0.33199,1.11064 H 328.2907 315.67012 Z"
             id="path3634"
             transform="scale(0.26458333)" /><path
             style="fill:#6593a5;fill-opacity:1;stroke-width:2.77795;stroke-linecap:square;stroke-opacity:0.764706;paint-order:markers stroke fill"
             d="m 315.67012,368.9811 v -11.35326 h 12.58731 12.58732 v 11.35326 11.35326 h -12.58732 -12.58731 z"
             id="path3636"
             transform="scale(0.26458333)" /><path
             style="fill:#6593a5;fill-opacity:1;stroke-width:2.77795;stroke-linecap:square;stroke-opacity:0.764706;paint-order:markers stroke fill"
             d="m 282.59756,368.9811 v -11.35326 h 12.83413 12.83413 v 11.35326 11.35326 h -12.83413 -12.83413 z"
             id="path3638"
             transform="scale(0.26458333)" /><path
             style="fill:#6593a5;fill-opacity:1;stroke-width:2.77795;stroke-linecap:square;stroke-opacity:0.764706;paint-order:markers stroke fill"
             d="m 282.59756,398.84512 v -11.10645 h 12.83413 12.83413 v 11.10645 11.10646 h -12.83413 -12.83413 z"
             id="path3640"
             transform="scale(0.26458333)" /><path
             style="fill:#6593a5;fill-opacity:1;stroke-width:2.77795;stroke-linecap:square;stroke-opacity:0.764706;paint-order:markers stroke fill"
             d="m 315.67012,398.84512 v -11.10645 h 12.58731 12.58732 v 11.10645 11.10646 h -12.58732 -12.58731 z"
             id="path3642"
             transform="scale(0.26458333)" /><path
             style="fill:#6593a5;fill-opacity:1;stroke-width:2.77795;stroke-linecap:square;stroke-opacity:0.764706;paint-order:markers stroke fill"
             d="m 315.67012,423.03251 v -5.18301 h 12.58731 12.58732 v 5.18301 5.18301 h -12.58732 -12.58731 z"
             id="path3644"
             transform="scale(0.26458333)" /><path
             style="fill:#6593a5;fill-opacity:1;stroke-width:2.77795;stroke-linecap:square;stroke-opacity:0.764706;paint-order:markers stroke fill"
             d="m 282.59756,423.03251 v -5.18301 h 12.83413 12.83413 v 5.18301 5.18301 h -12.83413 -12.83413 z"
             id="path3646"
             transform="scale(0.26458333)" /><path
             style="fill:#6593a5;fill-opacity:1;stroke-width:2.77795;stroke-linecap:square;stroke-opacity:0.764706;paint-order:markers stroke fill"
             d="m 455.8853,348.11881 c 1.91297,-10.23967 10.04012,-18.44431 21.56884,-21.77449 l 2.5915,-0.74859 v 12.3139 12.3139 h -12.27677 -12.27678 z"
             id="path3648"
             transform="scale(0.26458333)" /><path
             style="fill:#6593a5;fill-opacity:1;stroke-width:2.77795;stroke-linecap:square;stroke-opacity:0.764706;paint-order:markers stroke fill"
             d="m 487.44995,337.92681 v -12.29673 l 3.08512,0.70267 c 9.47188,2.15734 18.02098,9.67011 21.04563,18.49445 0.5055,1.47478 1.06247,3.29228 1.2377,4.03888 l 0.31861,1.35745 h -12.84353 -12.84353 z"
             id="path3650"
             transform="scale(0.26458333)" /><path
             style="fill:#6593a5;fill-opacity:1;stroke-width:2.77795;stroke-linecap:square;stroke-opacity:0.764706;paint-order:markers stroke fill"
             d="m 487.44995,368.9811 v -11.35326 h 12.83412 12.83413 v 11.35326 11.35326 h -12.83413 -12.83412 z"
             id="path3652"
             transform="scale(0.26458333)" /><path
             style="fill:#6593a5;fill-opacity:1;stroke-width:2.77795;stroke-linecap:square;stroke-opacity:0.764706;paint-order:markers stroke fill"
             d="m 454.37739,368.9811 v -11.35326 h 12.83413 12.83412 v 11.35326 11.35326 h -12.83412 -12.83413 z"
             id="path3654"
             transform="scale(0.26458333)" /><path
             style="fill:#6593a5;fill-opacity:1;stroke-width:2.77795;stroke-linecap:square;stroke-opacity:0.764706;paint-order:markers stroke fill"
             d="m 454.37739,398.84512 v -11.10645 h 12.83413 12.83412 v 11.10645 11.10646 h -12.83412 -12.83413 z"
             id="path3656"
             transform="scale(0.26458333)" /><path
             style="fill:#6593a5;fill-opacity:1;stroke-width:2.77795;stroke-linecap:square;stroke-opacity:0.764706;paint-order:markers stroke fill"
             d="m 487.44995,398.84512 v -11.10645 h 12.83412 12.83413 v 11.10645 11.10646 h -12.83413 -12.83412 z"
             id="path3658"
             transform="scale(0.26458333)" /><path
             style="fill:#6593a5;fill-opacity:1;stroke-width:2.77795;stroke-linecap:square;stroke-opacity:0.764706;paint-order:markers stroke fill"
             d="m 487.44995,423.03251 v -5.18301 h 12.83412 12.83413 v 5.18301 5.18301 h -12.83413 -12.83412 z"
             id="path3660"
             transform="scale(0.26458333)" /><path
             style="fill:#6593a5;fill-opacity:1;stroke-width:2.77795;stroke-linecap:square;stroke-opacity:0.764706;paint-order:markers stroke fill"
             d="m 454.37739,423.03251 v -5.18301 h 12.83413 12.83412 v 5.18301 5.18301 h -12.83412 -12.83413 z"
             id="path3662"
             transform="scale(0.26458333)" /><path
             style="fill:#6593a5;fill-opacity:1;stroke-width:3.92862;stroke-linecap:square;stroke-opacity:0.764706;paint-order:markers stroke fill"
             d="M 315.88318,507.78071 V 495.8376 l 1.91973,0.45092 c 4.12914,0.96988 10.59398,4.73466 14.02915,8.16984 3.32491,3.32491 8.48408,12.02811 8.48408,14.31213 0,0.7694 -2.35696,0.95333 -12.21648,0.95333 h -12.21648 z"
             id="path3664"
             transform="scale(0.26458333)" /><path
             style="fill:#6593a5;fill-opacity:1;stroke-width:3.92862;stroke-linecap:square;stroke-opacity:0.764706;paint-order:markers stroke fill"
             d="m 283.07322,518.83152 c 0,-2.43319 5.15031,-11.32266 8.38607,-14.47438 3.50701,-3.41593 10.16289,-7.09514 14.47619,-8.00208 l 2.26877,-0.47704 v 11.9229 11.9229 h -12.56551 c -9.73494,0 -12.56552,-0.201 -12.56552,-0.8923 z"
             id="path3666"
             transform="scale(0.26458333)" /><path
             style="fill:#6593a5;fill-opacity:1;stroke-width:3.92862;stroke-linecap:square;stroke-opacity:0.764706;paint-order:markers stroke fill"
             d="m 282.37513,538.5721 v -11.16935 h 12.91456 12.91456 v 11.16935 11.16935 h -12.91456 -12.91456 z"
             id="path3668"
             transform="scale(0.26458333)" /><path
             style="fill:#6593a5;fill-opacity:1;stroke-width:3.92862;stroke-linecap:square;stroke-opacity:0.764706;paint-order:markers stroke fill"
             d="m 315.88318,538.5721 v -11.16935 h 12.56552 12.56552 v 11.16935 11.16935 H 328.4487 315.88318 Z"
             id="path3670"
             transform="scale(0.26458333)" /><path
             style="fill:#6593a5;fill-opacity:1;stroke-width:3.92862;stroke-linecap:square;stroke-opacity:0.764706;paint-order:markers stroke fill"
             d="m 315.88318,568.58973 v -11.16935 h 12.56552 12.56552 v 11.16935 11.16935 H 328.4487 315.88318 Z"
             id="path3672"
             transform="scale(0.26458333)" /><path
             style="fill:#6593a5;fill-opacity:1;stroke-width:3.92862;stroke-linecap:square;stroke-opacity:0.764706;paint-order:markers stroke fill"
             d="m 282.37513,568.58973 v -11.16935 h 12.91456 12.91456 v 11.16935 11.16935 h -12.91456 -12.91456 z"
             id="path3674"
             transform="scale(0.26458333)" /><path
             style="fill:#6593a5;fill-opacity:1;stroke-width:3.92862;stroke-linecap:square;stroke-opacity:0.764706;paint-order:markers stroke fill"
             d="m 282.37513,592.67364 v -5.23563 h 12.91456 12.91456 v 5.23563 5.23563 h -12.91456 -12.91456 z"
             id="path3676"
             transform="scale(0.26458333)" /><path
             style="fill:#6593a5;fill-opacity:1;stroke-width:3.92862;stroke-linecap:square;stroke-opacity:0.764706;paint-order:markers stroke fill"
             d="m 315.88318,592.67364 v -5.23563 h 12.56552 12.56552 v 5.23563 5.23563 H 328.4487 315.88318 Z"
             id="path3678"
             transform="scale(0.26458333)" /><path
             style="fill:#6593a5;fill-opacity:1;stroke-width:3.92862;stroke-linecap:square;stroke-opacity:0.764706;paint-order:markers stroke fill"
             d="m 456.30897,516.78415 c 2.03152,-9.04162 11.56715,-18.0411 21.70431,-20.48394 l 1.91973,-0.46261 v 11.94311 11.94311 h -12.14227 -12.14227 z"
             id="path3680"
             transform="scale(0.26458333)" /><path
             style="fill:#6593a5;fill-opacity:1;stroke-width:3.92862;stroke-linecap:square;stroke-opacity:0.764706;paint-order:markers stroke fill"
             d="m 487.61194,507.85639 c 0,-6.52709 0.26496,-11.86744 0.5888,-11.86744 1.65729,0 9.13363,3.06219 12.05804,4.93878 5.89315,3.78162 10.54623,10.23571 12.16701,16.87636 l 0.46854,1.91973 h -12.64119 -12.6412 z"
             id="path3682"
             transform="scale(0.26458333)" /><path
             style="fill:#6593a5;fill-opacity:1;stroke-width:3.92862;stroke-linecap:square;stroke-opacity:0.764706;paint-order:markers stroke fill"
             d="m 487.61194,538.5721 v -11.16935 h 12.56552 12.56552 v 11.16935 11.16935 h -12.56552 -12.56552 z"
             id="path3684"
             transform="scale(0.26458333)" /><path
             style="fill:#6593a5;fill-opacity:1;stroke-width:3.92862;stroke-linecap:square;stroke-opacity:0.764706;paint-order:markers stroke fill"
             d="m 454.80197,538.5721 v -11.16935 h 12.56552 12.56552 v 11.16935 11.16935 h -12.56552 -12.56552 z"
             id="path3686"
             transform="scale(0.26458333)" /><path
             style="fill:#6593a5;fill-opacity:1;stroke-width:3.92862;stroke-linecap:square;stroke-opacity:0.764706;paint-order:markers stroke fill"
             d="m 454.80197,568.58973 v -11.16935 h 12.56552 12.56552 v 11.16935 11.16935 h -12.56552 -12.56552 z"
             id="path3688"
             transform="scale(0.26458333)" /><path
             style="fill:#6593a5;fill-opacity:1;stroke-width:3.92862;stroke-linecap:square;stroke-opacity:0.764706;paint-order:markers stroke fill"
             d="m 487.61194,568.58973 v -11.16935 h 12.56552 12.56552 v 11.16935 11.16935 h -12.56552 -12.56552 z"
             id="path3690"
             transform="scale(0.26458333)" /><path
             style="fill:#6593a5;fill-opacity:1;stroke-width:1.96431;stroke-linecap:square;stroke-opacity:0.764706;paint-order:markers stroke fill"
             d="m 487.43742,592.84816 v -5.23563 h 12.91456 12.91456 v 5.23563 5.23563 h -12.91456 -12.91456 z"
             id="path3694"
             transform="scale(0.26458333)" /><path
             style="fill:#6593a5;fill-opacity:1;stroke-width:1.96431;stroke-linecap:square;stroke-opacity:0.764706;paint-order:markers stroke fill"
             d="m 454.62745,592.84816 v -5.23563 h 12.74004 12.74004 v 5.23563 5.23563 h -12.74004 -12.74004 z"
             id="path3696"
             transform="scale(0.26458333)" /><path
             style="fill:#6593a5;fill-opacity:1;stroke-width:1.96431;stroke-linecap:square;stroke-opacity:0.764706;paint-order:markers stroke fill"
             d="m 455.7161,689.09655 c 1.0235,-8.40113 6.55548,-15.56821 15.49086,-20.06953 1.99858,-1.00682 7.90288,-3.22904 8.57934,-3.22904 0.18975,0 0.32123,5.2147 0.32123,12.74004 v 12.74004 h -12.3286 -12.3286 z"
             id="path3698"
             transform="scale(0.26458333)" /><path
             style="fill:#6593a5;fill-opacity:1;stroke-width:1.96431;stroke-linecap:square;stroke-opacity:0.764706;paint-order:markers stroke fill"
             d="m 454.62745,708.90469 v -11.34387 h 12.74004 12.74004 v 11.34387 11.34387 h -12.74004 -12.74004 z"
             id="path3700"
             transform="scale(0.26458333)" /><path
             style="fill:#6593a5;fill-opacity:1;stroke-width:1.96431;stroke-linecap:square;stroke-opacity:0.764706;paint-order:markers stroke fill"
             d="m 487.43742,708.90469 v -11.34387 h 12.91456 12.91456 v 11.34387 11.34387 h -12.91456 -12.91456 z"
             id="path3702"
             transform="scale(0.26458333)" /><path
             style="fill:#6593a5;fill-opacity:1;stroke-width:1.96431;stroke-linecap:square;stroke-opacity:0.764706;paint-order:markers stroke fill"
             d="m 487.43742,678.53802 c 0,-9.07228 0.1111,-12.74004 0.38592,-12.74004 0.93802,0 4.70278,1.15568 7.2116,2.21376 9.85309,4.15551 16.3471,12.00452 17.86224,21.58928 l 0.26511,1.67704 h -12.86244 -12.86243 z"
             id="path3704"
             transform="scale(0.26458333)" /><path
             style="fill:#6593a5;fill-opacity:1;stroke-width:1.96431;stroke-linecap:square;stroke-opacity:0.764706;paint-order:markers stroke fill"
             d="m 487.43742,738.92232 v -11.34387 h 12.91456 12.91456 v 11.34387 11.34387 h -12.91456 -12.91456 z"
             id="path3706"
             transform="scale(0.26458333)" /><path
             style="fill:#6593a5;fill-opacity:1;stroke-width:1.96431;stroke-linecap:square;stroke-opacity:0.764706;paint-order:markers stroke fill"
             d="m 487.43742,762.83171 v -5.23563 h 12.91456 12.91456 v 5.23563 5.23563 h -12.91456 -12.91456 z"
             id="path3708"
             transform="scale(0.26458333)" /><path
             style="fill:#6593a5;fill-opacity:1;stroke-width:1.96431;stroke-linecap:square;stroke-opacity:0.764706;paint-order:markers stroke fill"
             d="m 454.62745,762.83171 v -5.23563 h 12.74004 12.74004 v 5.23563 5.23563 h -12.74004 -12.74004 z"
             id="path3710"
             transform="scale(0.26458333)" /><path
             style="fill:#6593a5;fill-opacity:1;stroke-width:1.96431;stroke-linecap:square;stroke-opacity:0.764706;paint-order:markers stroke fill"
             d="m 454.62745,738.92232 v -11.34387 h 12.74004 12.74004 v 11.34387 11.34387 h -12.74004 -12.74004 z"
             id="path3712"
             transform="scale(0.26458333)" /><path
             style="fill:#6593a5;fill-opacity:1;stroke-width:1.96431;stroke-linecap:square;stroke-opacity:0.764706;paint-order:markers stroke fill"
             d="m 315.35962,738.92232 v -11.34387 h 12.91456 12.91456 v 11.34387 11.34387 h -12.91456 -12.91456 z"
             id="path3714"
             transform="scale(0.26458333)" /><path
             style="fill:#6593a5;fill-opacity:1;stroke-width:1.96431;stroke-linecap:square;stroke-opacity:0.764706;paint-order:markers stroke fill"
             d="m 315.35962,762.83171 v -5.23563 h 12.91456 12.91456 v 5.23563 5.23563 h -12.91456 -12.91456 z"
             id="path3716"
             transform="scale(0.26458333)" /><path
             style="fill:#6593a5;fill-opacity:1;stroke-width:1.96431;stroke-linecap:square;stroke-opacity:0.764706;paint-order:markers stroke fill"
             d="m 282.54965,762.83171 v -5.23563 h 12.74004 12.74004 v 5.23563 5.23563 h -12.74004 -12.74004 z"
             id="path3718"
             transform="scale(0.26458333)" /><path
             style="fill:#6593a5;fill-opacity:1;stroke-width:1.96431;stroke-linecap:square;stroke-opacity:0.764706;paint-order:markers stroke fill"
             d="m 282.54965,738.92232 v -11.34387 h 12.74004 12.74004 v 11.34387 11.34387 h -12.74004 -12.74004 z"
             id="path3720"
             transform="scale(0.26458333)" /><path
             style="fill:#6593a5;fill-opacity:1;stroke-width:1.96431;stroke-linecap:square;stroke-opacity:0.764706;paint-order:markers stroke fill"
             d="m 282.54965,708.90469 v -11.34387 h 12.74004 12.74004 v 11.34387 11.34387 h -12.74004 -12.74004 z"
             id="path3722"
             transform="scale(0.26458333)" /><path
             style="fill:#6593a5;fill-opacity:1;stroke-width:1.96431;stroke-linecap:square;stroke-opacity:0.764706;paint-order:markers stroke fill"
             d="m 315.35962,708.90469 v -11.34387 h 12.91456 12.91456 v 11.34387 11.34387 h -12.91456 -12.91456 z"
             id="path3724"
             transform="scale(0.26458333)" /><path
             style="fill:#6593a5;fill-opacity:1;stroke-width:1.96431;stroke-linecap:square;stroke-opacity:0.764706;paint-order:markers stroke fill"
             d="m 315.56511,688.7475 c 0.18234,-3.04264 0.8436,-20.19552 0.84245,-21.85297 -7.6e-4,-1.09805 0.0586,-1.15733 0.93736,-0.93676 1.67359,0.42004 8.10093,3.60213 10.50812,5.20243 6.09723,4.05343 10.57394,10.31219 12.59648,17.61078 l 0.69475,2.50708 h -12.86541 -12.86541 z"
             id="path3726"
             transform="scale(0.26458333)" /><path
             style="fill:#6593a5;fill-opacity:1;stroke-width:1.96431;stroke-linecap:square;stroke-opacity:0.764706;paint-order:markers stroke fill"
             d="m 282.54965,690.79354 c 0,-1.00973 1.79178,-6.61156 2.67042,-8.34885 2.99074,-5.9134 7.46856,-10.36764 13.56005,-13.48865 2.63817,-1.35169 7.63968,-3.15806 8.74407,-3.15806 0.43213,0 0.50554,1.85006 0.50554,12.74004 v 12.74004 h -12.74004 c -10.63547,0 -12.74004,-0.08 -12.74004,-0.48452 z"
             id="path3728"
             transform="scale(0.26458333)" /><path
             style="fill:#6593a5;fill-opacity:1;stroke-width:1.38898;stroke-linecap:square;stroke-opacity:0.764706;paint-order:markers stroke fill"
             d="m 370.58537,190.33758 c 0,-1.22154 0.94357,-4.71717 1.85956,-6.88906 1.66953,-3.95862 4.88481,-7.91581 8.78406,-10.81093 3.25234,-2.41481 8.50014,-4.81887 12.57295,-5.75978 l 1.46444,-0.33832 v 12.30747 12.30746 h -12.34051 -12.3405 z"
             id="path3730"
             transform="scale(0.26458333)" /><path
             style="fill:#6593a5;fill-opacity:1;stroke-width:1.38898;stroke-linecap:square;stroke-opacity:0.764706;paint-order:markers stroke fill"
             d="m 369.35132,210.40561 v -11.84688 h 12.95753 12.95753 v 11.84688 11.84689 h -12.95753 -12.95753 z"
             id="path3732"
             transform="scale(0.26458333)" /><path
             style="fill:#6593a5;fill-opacity:1;stroke-width:1.38898;stroke-linecap:square;stroke-opacity:0.764706;paint-order:markers stroke fill"
             d="m 402.42387,210.40561 v -11.84688 h 12.83412 12.83413 v 11.84688 11.84689 h -12.83413 -12.83412 z"
             id="path3734"
             transform="scale(0.26458333)" /><path
             style="fill:#6593a5;fill-opacity:1;stroke-width:1.38898;stroke-linecap:square;stroke-opacity:0.764706;paint-order:markers stroke fill"
             d="m 402.42387,178.80922 v -12.34521 l 0.55532,0.12173 c 5.31371,1.16483 7.5799,1.95405 10.66489,3.71417 5.15397,2.94056 9.14726,7.0913 11.71203,12.17383 0.89484,1.77328 2.36291,6.06172 2.61259,7.63174 l 0.16681,1.04894 h -12.85582 -12.85582 z"
             id="path3736"
             transform="scale(0.26458333)" /><path
             style="fill:#6593a5;fill-opacity:1;stroke-width:1.38898;stroke-linecap:square;stroke-opacity:0.764706;paint-order:markers stroke fill"
             d="m 312.33818,173.3841 v -8.88517 h 9.37879 9.37878 v 8.88517 8.88516 h -9.37878 -9.37879 z"
             id="path3738"
             transform="scale(0.26458333)" /><path
             style="fill:#6593a5;fill-opacity:1;stroke-width:1.38898;stroke-linecap:square;stroke-opacity:0.764706;paint-order:markers stroke fill"
             d="m 287.41036,173.3841 v -8.88517 h 9.37879 9.37878 v 8.88517 8.88516 h -9.37878 -9.37879 z"
             id="path3740"
             transform="scale(0.26458333)" /><path
             style="fill:#6593a5;fill-opacity:1;stroke-width:1.38898;stroke-linecap:square;stroke-opacity:0.764706;paint-order:markers stroke fill"
             d="m 287.55381,158.63719 c 0.71393,-3.16999 1.28723,-4.7556 2.61024,-7.21919 3.04501,-5.67016 8.80299,-9.83586 14.8486,-10.74245 l 1.15528,-0.17325 v 9.40681 9.40681 h -9.38349 -9.38348 z"
             id="path3742"
             transform="scale(0.26458333)" /><path
             style="fill:#6593a5;fill-opacity:1;stroke-width:1.38898;stroke-linecap:square;stroke-opacity:0.764706;paint-order:markers stroke fill"
             d="m 312.33818,149.93714 c 0,-10.7856 -0.34984,-9.69943 2.86054,-8.88124 7.54079,1.92181 13.33091,7.81538 15.38578,15.66067 0.28119,1.07354 0.51125,2.09757 0.51125,2.27562 0,0.26142 -1.80515,0.32373 -9.37878,0.32373 h -9.37879 z"
             id="path3744"
             transform="scale(0.26458333)" /><path
             style="fill:#6593a5;fill-opacity:1;stroke-width:1.38898;stroke-linecap:square;stroke-opacity:0.764706;paint-order:markers stroke fill"
             d="m 465.72463,158.39742 c 0.0948,-0.50517 0.53391,-1.87932 0.97587,-3.05365 2.08702,-5.5455 5.46117,-9.68667 9.97194,-12.23877 1.76388,-0.99797 5.19612,-2.16196 7.13706,-2.42042 l 1.29575,-0.17255 v 9.40195 9.40194 h -9.77646 -9.77647 z"
             id="path3746"
             transform="scale(0.26458333)" /><path
             style="fill:#6593a5;fill-opacity:1;stroke-width:1.38898;stroke-linecap:square;stroke-opacity:0.764706;paint-order:markers stroke fill"
             d="m 465.36044,173.3841 v -8.88517 h 9.87241 9.8724 v 8.88517 8.88516 h -9.8724 -9.87241 z"
             id="path3748"
             transform="scale(0.26458333)" /><path
             style="fill:#6593a5;fill-opacity:1;stroke-width:1.38898;stroke-linecap:square;stroke-opacity:0.764706;paint-order:markers stroke fill"
             d="m 490.53507,173.3841 v -8.88517 h 9.87241 9.8724 v 8.88517 8.88516 h -9.8724 -9.87241 z"
             id="path3750"
             transform="scale(0.26458333)" /><path
             style="fill:#6593a5;fill-opacity:1;stroke-width:1.38898;stroke-linecap:square;stroke-opacity:0.764706;paint-order:markers stroke fill"
             d="m 490.53507,149.91398 v -9.40195 l 1.29576,0.16891 c 1.96867,0.25664 5.54822,1.51711 7.3426,2.58556 3.41889,2.03575 6.47885,5.53062 8.52325,9.73463 0.97139,1.99752 2.33639,5.56791 2.33639,6.11121 0,0.11197 -4.38705,0.20358 -9.749,0.20358 h -9.749 z"
             id="path3752"
             transform="scale(0.26458333)" /></g><g
           id="g2990"
           inkscape:label="ablaktetok"><path
             style="fill:#5b1c11;fill-opacity:1;stroke:none;stroke-width:0.264583"
             d="m 67.813836,89.00129 v 2.910416 c 1.058069,0 3.16521,0.404284 4.040981,-0.271991 0.93054,-0.71808 1.279261,-2.706688 1.988608,-3.696759 1.950509,-2.723356 5.13768,-4.599516 8.522494,-4.693973 3.439055,-0.09578 6.791325,1.964002 8.719873,4.693973 0.6985,0.989013 1.113896,2.995613 2.049198,3.696759 0.856192,0.641879 2.728648,0.285485 3.783013,0.536575 v -3.175 c -2.001308,-1.135857 -2.941638,-4.416425 -4.763559,-6.036734 -4.911989,-4.368271 -12.5984,-4.761971 -17.990608,-1.048544 -1.492515,1.027907 -2.837656,2.387865 -3.823758,3.910278 -0.770203,1.189037 -1.072886,2.720445 -2.526242,3.175"
             id="path477" /><path
             style="fill:#5b1c11;fill-opacity:1;stroke:none;stroke-width:0.264583"
             d="m 113.4351,89.00129 v 2.910416 c 1.05807,0 3.16521,0.404284 4.04099,-0.271991 0.93054,-0.71808 1.27926,-2.706688 1.9886,-3.696759 1.95051,-2.723356 5.13768,-4.599516 8.5225,-4.693973 3.43905,-0.09578 6.79132,1.964002 8.71987,4.693973 0.6985,0.989013 1.1139,2.995613 2.0492,3.696759 0.85619,0.641879 2.72865,0.285485 3.78301,0.536575 v -3.175 c -2.00131,-1.135857 -2.94164,-4.416425 -4.76356,-6.036734 -4.91199,-4.368271 -12.5984,-4.761971 -17.99061,-1.048544 -1.49251,1.027907 -2.83765,2.387865 -3.82375,3.910278 -0.77021,1.189037 -1.07289,2.720445 -2.52625,3.175"
             id="path529" /><path
             style="fill:#5b1c11;fill-opacity:1;stroke:none;stroke-width:0.264583"
             d="m 67.813836,134.05956 v 2.91041 c 1.058069,0 3.16521,0.40429 4.040981,-0.27199 0.93054,-0.71808 1.279261,-2.70668 1.988608,-3.69676 1.950509,-2.72335 5.13768,-4.59951 8.522494,-4.69397 3.439055,-0.0958 6.791325,1.964 8.719873,4.69397 0.6985,0.98902 1.113896,2.99562 2.049198,3.69676 0.856192,0.64188 2.728648,0.28549 3.783013,0.53658 v -3.175 c -2.001308,-1.13586 -2.941638,-4.41643 -4.763559,-6.03674 -4.911989,-4.36827 -12.5984,-4.76197 -17.990608,-1.04854 -1.492515,1.02791 -2.837656,2.38787 -3.823758,3.91028 -0.770203,1.18904 -1.072886,2.72044 -2.526242,3.175"
             id="path531" /><path
             style="fill:#5b1c11;fill-opacity:1;stroke:none;stroke-width:0.264583"
             d="m 113.39452,134.05956 v 2.91041 c 1.05807,0 3.16521,0.40429 4.04098,-0.27199 0.93054,-0.71808 1.27926,-2.70668 1.98861,-3.69676 1.95051,-2.72335 5.13768,-4.59951 8.52249,-4.69397 3.43906,-0.0958 6.79133,1.964 8.71988,4.69397 0.6985,0.98902 1.11389,2.99562 2.04919,3.69676 0.8562,0.64188 2.72865,0.28549 3.78302,0.53658 v -3.175 c -2.00131,-1.13586 -2.94164,-4.41643 -4.76356,-6.03674 -4.91199,-4.36827 -12.5984,-4.76197 -17.99061,-1.04854 -1.49252,1.02791 -2.83766,2.38787 -3.82376,3.91028 -0.7702,1.18904 -1.07288,2.72044 -2.52624,3.175"
             id="path533" /><path
             style="fill:#5b1c11;fill-opacity:1;stroke:none;stroke-width:0.264583"
             d="m 67.813836,179.12672 v 2.91041 c 1.058069,0 3.16521,0.40429 4.040981,-0.27199 0.93054,-0.71808 1.279261,-2.70668 1.988608,-3.69676 1.950509,-2.72335 5.13768,-4.59951 8.522494,-4.69397 3.439055,-0.0958 6.791325,1.964 8.719873,4.69397 0.6985,0.98902 1.113896,2.99562 2.049198,3.69676 0.856192,0.64188 2.728648,0.28549 3.783013,0.53658 v -3.175 c -2.001308,-1.13586 -2.941638,-4.41643 -4.763559,-6.03674 -4.911989,-4.36827 -12.5984,-4.76197 -17.990608,-1.04854 -1.492515,1.02791 -2.837656,2.38787 -3.823758,3.91028 -0.770203,1.18904 -1.072886,2.72044 -2.526242,3.175"
             id="path535" /><path
             style="fill:#5b1c11;fill-opacity:1;stroke:none;stroke-width:0.264583"
             d="m 113.2504,179.12672 v 2.91041 c 1.05807,0 3.16521,0.40429 4.04098,-0.27199 0.93054,-0.71808 1.27927,-2.70668 1.98861,-3.69676 1.95051,-2.72335 5.13768,-4.59951 8.5225,-4.69397 3.43905,-0.0958 6.79132,1.964 8.71987,4.69397 0.6985,0.98902 1.1139,2.99562 2.0492,3.69676 0.85619,0.64188 2.72865,0.28549 3.78301,0.53658 v -3.175 c -2.00131,-1.13586 -2.94164,-4.41643 -4.76356,-6.03674 -4.91199,-4.36827 -12.5984,-4.76197 -17.99061,-1.04854 -1.49251,1.02791 -2.83765,2.38787 -3.82375,3.91028 -0.77021,1.18904 -1.07289,2.72044 -2.52625,3.175"
             id="path537" /></g><path
           style="fill:#6593a5;fill-opacity:1;stroke-width:5.55591;stroke-linecap:square;stroke-opacity:0.764706;paint-order:markers stroke fill"
           d="m 269.02301,946.26992 v -57.25994 h 54.79184 54.79184 v 57.25994 57.25998 h -54.79184 -54.79184 z"
           id="path4460"
           transform="scale(0.26458333)" /><ellipse
           style="fill:#35100b;fill-opacity:1;stroke-width:1.64615;stroke-linecap:square;stroke-opacity:0.764706;paint-order:markers stroke fill"
           id="path4652"
           cx="136.08348"
           cy="258.45151"
           rx="1.2467351"
           ry="1.5237874" /><path
           style="display:inline;fill:none;fill-opacity:1;stroke:#35100b;stroke-width:2;stroke-linecap:square;stroke-linejoin:miter;stroke-dasharray:none;stroke-opacity:1"
           d="m 111.99925,274.78127 h 28.83959 v -24.60626 c 0,-4.71857 0.5715,-9.69036 -1.65603,-14.02291 -5.34749,-10.40077 -21.03411,-10.10629 -25.99558,0.52916 -1.84679,3.95923 -1.18798,8.71538 -1.18798,12.96459 v 25.13542"
           id="path4654"
           inkscape:label="ajto" /></g></g><path
       style="display:inline;fill:url(#linearGradient5070);fill-opacity:1;fill-rule:nonzero;stroke:none;stroke-width:5.18589;stroke-linecap:square;stroke-linejoin:miter;stroke-dasharray:none;stroke-opacity:1;paint-order:markers stroke fill"
       d="m 121.91989,178.17982 70.56368,-75.90025 -1.50619,-0.71514 c -1.10028,-0.5224 -1.16931,-1.07747 -0.2561,-2.059728 0.68755,-0.73955 1.5449,-1.28396 1.90523,-1.2098 1.79971,0.37039 28.6456,-15.173764 40.31284,-23.34171 l 6.05848,-4.241411 3.25796,0.46768 3.25794,0.467679 2.50685,-3.268723 2.50688,-3.268723 2.49942,0.09223 c 1.3747,0.05073 3.32769,0.452666 4.33999,0.893199 l 1.84053,0.800963 -3.43723,3.118653 -3.43724,3.118657 26.71028,5.497168 26.7103,5.497169 1.98576,-2.135937 c 1.09216,-1.174764 1.79786,-2.35418 1.56822,-2.62092 -0.22963,-0.266741 -0.0908,-0.836428 0.30854,-1.265969 0.55755,-0.599702 1.8233,-0.555169 5.45303,0.191857 l 4.72696,0.972843 -3.44317,3.124046 -3.44318,3.124049 2.95056,0.810074 2.95055,0.810074 -3.07948,6.791557 c -5.15038,11.358723 -8.51868,22.504663 -8.20834,27.161813 0.17549,2.63325 -0.87204,3.77055 -3.43432,3.72864 -1.88996,-0.0309 -2.34151,0.2831 -7.35737,5.11634 -2.93911,2.8321 -34.76546,36.79381 -70.72523,75.47047 l -65.38138,70.3212 -47.20164,-9.71094 C 87.461668,260.67652 62.876634,255.80509 58.78874,255.19306 l -7.432608,-1.1127 z"
       id="path5034"
       inkscape:transform-center-x="-93.089552"
       inkscape:transform-center-y="-104.91045"
       transform="translate(50.977612,42.850745)" /></g></svg>
